name Walk10.mot
datacolumns 19
datarows 12
range 1.75600000 1.76700000
endheader

                time	   L_ground_force_vx	   L_ground_force_vy	   L_ground_force_vz	   L_ground_force_px	   L_ground_force_py	   L_ground_force_pz	   R_ground_force_vx	   R_ground_force_vy	   R_ground_force_vz	   R_ground_force_px	   R_ground_force_py	   R_ground_force_pz	   L_ground_torque_x	   L_ground_torque_y	   L_ground_torque_z	   R_ground_torque_x	   R_ground_torque_y	   R_ground_torque_z	
          1.75600000	         15.33993927	        555.85680171	         37.91457564	         -0.30496800	          0.00000000	         -0.10654168	         -0.01425645	          0.26083939	          0.01371750	          0.00014357	          0.00000000	          0.00005971	          0.00000000	         -0.18870966	          0.00000000	          0.00000000	          0.00023378	          0.00000000	
          1.75700000	         15.75425012	        557.89499076	         38.09564297	         -0.30477375	          0.00000000	         -0.10660384	         -0.01588931	          0.27468922	          0.01397685	          0.00014961	          0.00000000	          0.00006217	          0.00000000	         -0.18100657	          0.00000000	          0.00000000	          0.00026263	          0.00000000	
          1.75800000	         16.17624903	        559.94015216	         38.27991573	         -0.30458302	          0.00000000	         -0.10666638	         -0.01760827	          0.28869160	          0.01420257	          0.00015559	          0.00000000	          0.00006460	          0.00000000	         -0.17320313	          0.00000000	          0.00000000	          0.00029309	          0.00000000	
          1.75900000	         16.60589332	        561.99216983	         38.46729759	         -0.30439572	          0.00000000	         -0.10672931	         -0.01941425	          0.30280287	          0.01439061	          0.00016148	          0.00000000	          0.00006699	          0.00000000	         -0.16531396	          0.00000000	          0.00000000	          0.00032516	          0.00000000	
          1.76000000	         17.04313921	        564.05094520	         38.65768837	         -0.30421177	          0.00000000	         -0.10679259	         -0.02130787	          0.31697490	          0.01453670	          0.00016725	          0.00000000	          0.00006932	          0.00000000	         -0.15735428	          0.00000000	          0.00000000	          0.00035886	          0.00000000	
          1.76100000	         17.48794296	        566.11639491	         38.85098395	         -0.30403109	          0.00000000	         -0.10685622	         -0.02328946	          0.33115478	          0.01463632	          0.00017287	          0.00000000	          0.00007158	          0.00000000	         -0.14933976	          0.00000000	          0.00000000	          0.00039422	          0.00000000	
          1.76200000	         17.94026183	        568.18844809	         39.04707622	         -0.30385360	          0.00000000	         -0.10692018	         -0.02535900	          0.34528468	          0.01468476	          0.00017830	          0.00000000	          0.00007376	          0.00000000	         -0.14128635	          0.00000000	          0.00000000	          0.00043124	          0.00000000	
          1.76300000	         18.40005480	        570.26704316	         39.24585296	         -0.30367922	          0.00000000	         -0.10698444	         -0.02751612	          0.35930162	          0.01467705	          0.00018349	          0.00000000	          0.00007583	          0.00000000	         -0.13320986	          0.00000000	          0.00000000	          0.00046991	          0.00000000	
          1.76400000	         18.86728286	        572.35212451	         39.44719793	         -0.30350787	          0.00000000	         -0.10704898	         -0.02976006	          0.37313719	          0.01460801	          0.00018841	          0.00000000	          0.00007779	          0.00000000	         -0.12512576	          0.00000000	          0.00000000	          0.00051024	          0.00000000	
          1.76500000	         19.34190880	        574.44363916	         39.65099106	         -0.30333949	          0.00000000	         -0.10711379	         -0.03208960	          0.38671742	          0.01447222	          0.00019301	          0.00000000	          0.00007961	          0.00000000	         -0.11704890	          0.00000000	          0.00000000	          0.00055221	          0.00000000	
          1.76600000	         19.82389689	        576.54153371	         39.85710901	         -0.30317398	          0.00000000	         -0.10717884	         -0.03450310	          0.39996247	          0.01426404	          0.00019724	          0.00000000	          0.00008126	          0.00000000	         -0.10899355	          0.00000000	          0.00000000	          0.00059580	          0.00000000	
          1.76700000	         20.31321226	        578.64575145	         40.06542595	         -0.30301129	          0.00000000	         -0.10724411	         -0.03699837	          0.41278652	          0.01397762	          0.00020104	          0.00000000	          0.00008274	          0.00000000	         -0.10097334	          0.00000000	          0.00000000	          0.00064097	          0.00000000	
